<svg xmlns="http://www.w3.org/2000/svg" xmlns:xlink="http://www.w3.org/1999/xlink" viewBox="0 0 69 70" width="69" height="70" preserveAspectRatio="xMidYMid meet" style="width: 100%; height: 100%; transform: translate3d(0px, 0px, 0px); content-visibility: visible;"><defs><clipPath id="__lottie_element_88"><rect width="69" height="70" x="0" y="0"></rect></clipPath><clipPath id="__lottie_element_91"><path d="M0,0 L69,0 L69,70 L0,70z"></path></clipPath><clipPath id="__lottie_element_96"><path d="M0,0 L69,0 L69,70 L0,70z"></path></clipPath><mask id="__lottie_element_110"><rect fill="#ffffff" width="69" height="70" transform="matrix(1,0,0,1,-34,-31)"></rect><path fill="#000000" clip-rule="nonzero" d=" M21.130399703979492,10.565199851989746 C21.130399703979492,16.400400161743164 16.400400161743164,21.130399703979492 10.565199851989746,21.130399703979492 C4.730000019073486,21.130399703979492 0,16.400400161743164 0,10.565199851989746 C0,4.730000019073486 4.730000019073486,0 10.565199851989746,0 C16.400400161743164,0 21.130399703979492,4.730000019073486 21.130399703979492,10.565199851989746 C21.130399703979492,10.565199851989746 21.130399703979492,10.565199851989746 21.130399703979492,10.565199851989746 C21.130399703979492,10.565199851989746 21.130399703979492,10.565199851989746 21.130399703979492,10.565199851989746" fill-opacity="1"></path></mask><mask id="__lottie_element_117"><rect fill="#ffffff" width="69" height="70" transform="matrix(1,0,0,1,-25.082700729370117,-47.95560073852539)"></rect><path fill="#000000" clip-rule="nonzero" d=" M0.5870000123977661,0 C0.5870000123977661,0 18.413000106811523,0 18.413000106811523,0 C18.73719024658203,0 19,0.262800008058548 19,0.5870000123977661 C19,0.5870000123977661 19,3.4130001068115234 19,3.4130001068115234 C19,3.737190008163452 18.737199783325195,4 18.413000106811523,4 C18.413000106811523,4 0.5870000123977661,4 0.5870000123977661,4 C0.26280999183654785,4 0,3.7372000217437744 0,3.4130001068115234 C0,3.4130001068115234 0,0.5870000123977661 0,0.5870000123977661 C0,0.26280999183654785 0.262800008058548,0 0.5870000123977661,0 C0.5870000123977661,0 0.5870000123977661,0 0.5870000123977661,0 C0.5870000123977661,0 0.5870000123977661,0 0.5870000123977661,0" fill-opacity="1"></path></mask><mask id="__lottie_element_124"><rect fill="#ffffff" width="69" height="70" transform="matrix(1,0,0,1,-25.082698822021484,-24.4330997467041)"></rect><path fill="#000000" clip-rule="nonzero" d=" M0.5870000123977661,0 C0.5870000123977661,0 18.413000106811523,0 18.413000106811523,0 C18.73719024658203,0 19,0.262800008058548 19,0.5870000123977661 C19,0.5870000123977661 19,3.4130001068115234 19,3.4130001068115234 C19,3.737190008163452 18.737199783325195,4 18.413000106811523,4 C18.413000106811523,4 0.5870000123977661,4 0.5870000123977661,4 C0.26280999183654785,4 0,3.7372000217437744 0,3.4130001068115234 C0,3.4130001068115234 0,0.5870000123977661 0,0.5870000123977661 C0,0.26280999183654785 0.262800008058548,0 0.5870000123977661,0 C0.5870000123977661,0 0.5870000123977661,0 0.5870000123977661,0 C0.5870000123977661,0 0.5870000123977661,0 0.5870000123977661,0" fill-opacity="1"></path></mask><mask id="__lottie_element_131"><rect fill="#ffffff" width="69" height="70" transform="matrix(0.999848484992981,-0.008700000122189522,0.017425550147891045,1,-25.607154846191406,-29.214876174926758)"></rect><path fill="#000000" clip-rule="nonzero" d=" M0.5870000123977661,0 C0.5870000123977661,0 18.34950065612793,0 18.34950065612793,0 C18.673690795898438,0 18.936500549316406,0.262800008058548 18.936500549316406,0.5870000123977661 C18.936500549316406,0.5870000123977661 18.936500549316406,2.935699939727783 18.936500549316406,2.935699939727783 C18.936500549316406,3.259890079498291 18.6737003326416,3.522700071334839 18.34950065612793,3.522700071334839 C18.34950065612793,3.522700071334839 0.5870000123977661,3.522700071334839 0.5870000123977661,3.522700071334839 C0.26280999183654785,3.522700071334839 0,3.2599000930786133 0,2.935699939727783 C0,2.935699939727783 0,0.5870000123977661 0,0.5870000123977661 C0,0.26280999183654785 0.262800008058548,0 0.5870000123977661,0 C0.5870000123977661,0 0.5870000123977661,0 0.5870000123977661,0 C0.5870000123977661,0 0.5870000123977661,0 0.5870000123977661,0" fill-opacity="1"></path></mask><mask id="__lottie_element_138"><rect fill="#ffffff" width="69" height="70" transform="matrix(1,0,0,1,-25.082698822021484,-33.95560073852539)"></rect><path fill="#000000" clip-rule="nonzero" d=" M0.5870000123977661,0 C0.5870000123977661,0 18.413000106811523,0 18.413000106811523,0 C18.73719024658203,0 19,0.262800008058548 19,0.5870000123977661 C19,0.5870000123977661 19,3.4130001068115234 19,3.4130001068115234 C19,3.737190008163452 18.737199783325195,4 18.413000106811523,4 C18.413000106811523,4 0.5870000123977661,4 0.5870000123977661,4 C0.26280999183654785,4 0,3.7372000217437744 0,3.4130001068115234 C0,3.4130001068115234 0,0.5870000123977661 0,0.5870000123977661 C0,0.26280999183654785 0.262800008058548,0 0.5870000123977661,0 C0.5870000123977661,0 0.5870000123977661,0 0.5870000123977661,0 C0.5870000123977661,0 0.5870000123977661,0 0.5870000123977661,0" fill-opacity="1"></path></mask><mask id="__lottie_element_145"><rect fill="#ffffff" width="69" height="70" transform="matrix(1,0,0,1,-25.082698822021484,-38.95560073852539)"></rect><path fill="#000000" clip-rule="nonzero" d=" M0.5870000123977661,0 C0.5870000123977661,0 18.413000106811523,0 18.413000106811523,0 C18.73719024658203,0 19,0.262800008058548 19,0.5870000123977661 C19,0.5870000123977661 19,3.4130001068115234 19,3.4130001068115234 C19,3.737190008163452 18.737199783325195,4 18.413000106811523,4 C18.413000106811523,4 0.5870000123977661,4 0.5870000123977661,4 C0.26280999183654785,4 0,3.7372000217437744 0,3.4130001068115234 C0,3.4130001068115234 0,0.5870000123977661 0,0.5870000123977661 C0,0.26280999183654785 0.262800008058548,0 0.5870000123977661,0 C0.5870000123977661,0 0.5870000123977661,0 0.5870000123977661,0 C0.5870000123977661,0 0.5870000123977661,0 0.5870000123977661,0" fill-opacity="1"></path></mask><mask id="__lottie_element_152"><rect fill="#ffffff" width="69" height="70" transform="matrix(1,0,0,1,-25.082698822021484,-43.95560073852539)"></rect><path fill="#000000" clip-rule="nonzero" d=" M0.5870000123977661,0 C0.5870000123977661,0 18.413000106811523,0 18.413000106811523,0 C18.73719024658203,0 19,0.262800008058548 19,0.5870000123977661 C19,0.5870000123977661 19,2.4130001068115234 19,2.4130001068115234 C19,2.737190008163452 18.737199783325195,3 18.413000106811523,3 C18.413000106811523,3 0.5870000123977661,3 0.5870000123977661,3 C0.26280999183654785,3 0,2.7372000217437744 0,2.4130001068115234 C0,2.4130001068115234 0,0.5870000123977661 0,0.5870000123977661 C0,0.26280999183654785 0.262800008058548,0 0.5870000123977661,0 C0.5870000123977661,0 0.5870000123977661,0 0.5870000123977661,0 C0.5870000123977661,0 0.5870000123977661,0 0.5870000123977661,0" fill-opacity="1"></path></mask><mask id="__lottie_element_159"><rect fill="#ffffff" width="69" height="70" transform="matrix(0.999828040599823,-0.02070057950913906,0.022797677665948868,0.9997280240058899,-25.51573944091797,-18.47563362121582)"></rect><path fill="#000000" clip-rule="nonzero" d=" M0.5870000123977661,0 C0.5870000123977661,0 18.462799072265625,0 18.462799072265625,0 C18.786989212036133,0 19.049800872802734,0.262800008058548 19.049800872802734,0.5870000123977661 C19.049800872802734,0.5870000123977661 19.049800872802734,3.412899971008301 19.049800872802734,3.412899971008301 C19.049800872802734,3.7370901107788086 18.78700065612793,3.9999001026153564 18.462799072265625,3.9999001026153564 C18.462799072265625,3.9999001026153564 0.5870000123977661,3.9999001026153564 0.5870000123977661,3.9999001026153564 C0.26280999183654785,3.9999001026153564 0,3.7370998859405518 0,3.412899971008301 C0,3.412899971008301 0,0.5870000123977661 0,0.5870000123977661 C0,0.26280999183654785 0.262800008058548,0 0.5870000123977661,0 C0.5870000123977661,0 0.5870000123977661,0 0.5870000123977661,0 C0.5870000123977661,0 0.5870000123977661,0 0.5870000123977661,0" fill-opacity="1"></path></mask></defs><g clip-path="url(#__lottie_element_88)"><g clip-path="url(#__lottie_element_91)" transform="matrix(1,0,0,1,0,0)" opacity="1" style="display: block;"><g transform="matrix(1,0,0,1,0,0)" opacity="1" style="display: block;"><g opacity="1" transform="matrix(1,0,0,1,0,0)"><path fill="rgb(0,0,0)" fill-opacity="1" d=" M0,0 C0,0 69,0 69,0 C69,0 69,0 69,0 C69,0 69,70 69,70 C69,70 69,70 69,70 C69,70 0,70 0,70 C0,70 0,70 0,70 C0,70 0,0 0,0 C0,0 0,0 0,0z"></path></g></g><g transform="matrix(0.9997000098228455,0.02070000022649765,-0.02279703877866268,0.9998000264167786,25.086894989013672,19.00011444091797)" opacity="1" style="display: block;"><g opacity="1" transform="matrix(1,0,0,1,0,0)"><path fill="rgb(255,255,255)" fill-opacity="1" d=" M0.5870000123977661,0 C0.5870000123977661,0 18.462799072265625,0 18.462799072265625,0 C18.786989212036133,0 19.049800872802734,0.262800008058548 19.049800872802734,0.5870000123977661 C19.049800872802734,0.5870000123977661 19.049800872802734,3.412899971008301 19.049800872802734,3.412899971008301 C19.049800872802734,3.7370901107788086 18.78700065612793,3.9999001026153564 18.462799072265625,3.9999001026153564 C18.462799072265625,3.9999001026153564 0.5870000123977661,3.9999001026153564 0.5870000123977661,3.9999001026153564 C0.26280999183654785,3.9999001026153564 0,3.7370998859405518 0,3.412899971008301 C0,3.412899971008301 0,0.5870000123977661 0,0.5870000123977661 C0,0.26280999183654785 0.262800008058548,0 0.5870000123977661,0 C0.5870000123977661,0 0.5870000123977661,0 0.5870000123977661,0 C0.5870000123977661,0 0.5870000123977661,0 0.5870000123977661,0z"></path></g></g><g mask="url(#__lottie_element_159)" transform="matrix(0.9997000098228455,0.02070000022649765,-0.02279703877866268,0.9998000264167786,25.086894989013672,19.00011444091797)" opacity="1" style="display: block;"><g opacity="1" transform="matrix(1,0,0,1,0,0)"><path fill="rgb(0,255,0)" fill-opacity="0" d=" M30.335548400878906,-2.586899995803833 C30.335548400878906,-2.586899995803833 -10.111849784851074,-2.586899995803833 -10.111849784851074,-2.586899995803833 C-10.111849784851074,-2.586899995803833 -10.111849784851074,7.760700225830078 -10.111849784851074,7.760700225830078 C-10.111849784851074,7.760700225830078 30.335548400878906,7.760700225830078 30.335548400878906,7.760700225830078 C30.335548400878906,7.760700225830078 30.335548400878906,-2.586899995803833 30.335548400878906,-2.586899995803833z"></path></g><g opacity="1" transform="matrix(1,0,0,1,0,0)"><path stroke-linecap="butt" stroke-linejoin="miter" fill-opacity="0" stroke-miterlimit="4" stroke="rgb(128,128,128)" stroke-opacity="1" stroke-width="2.3478" d=" M0.5870000123977661,0 C0.5870000123977661,0 18.462799072265625,0 18.462799072265625,0 C18.786989212036133,0 19.049800872802734,0.262800008058548 19.049800872802734,0.5870000123977661 C19.049800872802734,0.5870000123977661 19.049800872802734,3.412899971008301 19.049800872802734,3.412899971008301 C19.049800872802734,3.7370901107788086 18.78700065612793,3.9999001026153564 18.462799072265625,3.9999001026153564 C18.462799072265625,3.9999001026153564 0.5870000123977661,3.9999001026153564 0.5870000123977661,3.9999001026153564 C0.26280999183654785,3.9999001026153564 0,3.7370998859405518 0,3.412899971008301 C0,3.412899971008301 0,0.5870000123977661 0,0.5870000123977661 C0,0.26280999183654785 0.262800008058548,0 0.5870000123977661,0 C0.5870000123977661,0 0.5870000123977661,0 0.5870000123977661,0 C0.5870000123977661,0 0.5870000123977661,0 0.5870000123977661,0z"></path></g></g><g transform="matrix(1,0,0,1,25.082698822021484,43.95560073852539)" opacity="1" style="display: block;"><g opacity="1" transform="matrix(1,0,0,1,0,0)"><path fill="rgb(255,255,255)" fill-opacity="1" d=" M0.5870000123977661,0 C0.5870000123977661,0 18.413000106811523,0 18.413000106811523,0 C18.73719024658203,0 19,0.262800008058548 19,0.5870000123977661 C19,0.5870000123977661 19,2.4130001068115234 19,2.4130001068115234 C19,2.737190008163452 18.737199783325195,3 18.413000106811523,3 C18.413000106811523,3 0.5870000123977661,3 0.5870000123977661,3 C0.26280999183654785,3 0,2.7372000217437744 0,2.4130001068115234 C0,2.4130001068115234 0,0.5870000123977661 0,0.5870000123977661 C0,0.26280999183654785 0.262800008058548,0 0.5870000123977661,0 C0.5870000123977661,0 0.5870000123977661,0 0.5870000123977661,0 C0.5870000123977661,0 0.5870000123977661,0 0.5870000123977661,0z"></path></g></g><g mask="url(#__lottie_element_152)" transform="matrix(1,0,0,1,25.082698822021484,43.95560073852539)" opacity="1" style="display: block;"><g opacity="1" transform="matrix(1,0,0,1,0,0)"><path fill="rgb(0,255,0)" fill-opacity="0" d=" M30.26085090637207,-2.0869500637054443 C30.26085090637207,-2.0869500637054443 -10.086950302124023,-2.0869500637054443 -10.086950302124023,-2.0869500637054443 C-10.086950302124023,-2.0869500637054443 -10.086950302124023,6.260849952697754 -10.086950302124023,6.260849952697754 C-10.086950302124023,6.260849952697754 30.26085090637207,6.260849952697754 30.26085090637207,6.260849952697754 C30.26085090637207,6.260849952697754 30.26085090637207,-2.0869500637054443 30.26085090637207,-2.0869500637054443z"></path></g><g opacity="1" transform="matrix(1,0,0,1,0,0)"><path stroke-linecap="butt" stroke-linejoin="miter" fill-opacity="0" stroke-miterlimit="4" stroke="rgb(128,128,128)" stroke-opacity="1" stroke-width="2.3478" d=" M0.5870000123977661,0 C0.5870000123977661,0 18.413000106811523,0 18.413000106811523,0 C18.73719024658203,0 19,0.262800008058548 19,0.5870000123977661 C19,0.5870000123977661 19,2.4130001068115234 19,2.4130001068115234 C19,2.737190008163452 18.737199783325195,3 18.413000106811523,3 C18.413000106811523,3 0.5870000123977661,3 0.5870000123977661,3 C0.26280999183654785,3 0,2.7372000217437744 0,2.4130001068115234 C0,2.4130001068115234 0,0.5870000123977661 0,0.5870000123977661 C0,0.26280999183654785 0.262800008058548,0 0.5870000123977661,0 C0.5870000123977661,0 0.5870000123977661,0 0.5870000123977661,0 C0.5870000123977661,0 0.5870000123977661,0 0.5870000123977661,0z"></path></g></g><g transform="matrix(1,0,0,1,25.082698822021484,38.95560073852539)" opacity="1" style="display: block;"><g opacity="1" transform="matrix(1,0,0,1,0,0)"><path fill="rgb(255,255,255)" fill-opacity="1" d=" M0.5870000123977661,0 C0.5870000123977661,0 18.413000106811523,0 18.413000106811523,0 C18.73719024658203,0 19,0.262800008058548 19,0.5870000123977661 C19,0.5870000123977661 19,3.4130001068115234 19,3.4130001068115234 C19,3.737190008163452 18.737199783325195,4 18.413000106811523,4 C18.413000106811523,4 0.5870000123977661,4 0.5870000123977661,4 C0.26280999183654785,4 0,3.7372000217437744 0,3.4130001068115234 C0,3.4130001068115234 0,0.5870000123977661 0,0.5870000123977661 C0,0.26280999183654785 0.262800008058548,0 0.5870000123977661,0 C0.5870000123977661,0 0.5870000123977661,0 0.5870000123977661,0 C0.5870000123977661,0 0.5870000123977661,0 0.5870000123977661,0z"></path></g></g><g mask="url(#__lottie_element_145)" transform="matrix(1,0,0,1,25.082698822021484,38.95560073852539)" opacity="1" style="display: block;"><g opacity="1" transform="matrix(1,0,0,1,0,0)"><path fill="rgb(0,255,0)" fill-opacity="0" d=" M30.26085090637207,-2.5869500637054443 C30.26085090637207,-2.5869500637054443 -10.086950302124023,-2.5869500637054443 -10.086950302124023,-2.5869500637054443 C-10.086950302124023,-2.5869500637054443 -10.086950302124023,7.760849952697754 -10.086950302124023,7.760849952697754 C-10.086950302124023,7.760849952697754 30.26085090637207,7.760849952697754 30.26085090637207,7.760849952697754 C30.26085090637207,7.760849952697754 30.26085090637207,-2.5869500637054443 30.26085090637207,-2.5869500637054443z"></path></g><g opacity="1" transform="matrix(1,0,0,1,0,0)"><path stroke-linecap="butt" stroke-linejoin="miter" fill-opacity="0" stroke-miterlimit="4" stroke="rgb(128,128,128)" stroke-opacity="1" stroke-width="2.3478" d=" M0.5870000123977661,0 C0.5870000123977661,0 18.413000106811523,0 18.413000106811523,0 C18.73719024658203,0 19,0.262800008058548 19,0.5870000123977661 C19,0.5870000123977661 19,3.4130001068115234 19,3.4130001068115234 C19,3.737190008163452 18.737199783325195,4 18.413000106811523,4 C18.413000106811523,4 0.5870000123977661,4 0.5870000123977661,4 C0.26280999183654785,4 0,3.7372000217437744 0,3.4130001068115234 C0,3.4130001068115234 0,0.5870000123977661 0,0.5870000123977661 C0,0.26280999183654785 0.262800008058548,0 0.5870000123977661,0 C0.5870000123977661,0 0.5870000123977661,0 0.5870000123977661,0 C0.5870000123977661,0 0.5870000123977661,0 0.5870000123977661,0z"></path></g></g><g transform="matrix(1,0,0,1,25.082698822021484,33.95560073852539)" opacity="1" style="display: block;"><g opacity="1" transform="matrix(1,0,0,1,0,0)"><path fill="rgb(255,255,255)" fill-opacity="1" d=" M0.5870000123977661,0 C0.5870000123977661,0 18.413000106811523,0 18.413000106811523,0 C18.73719024658203,0 19,0.262800008058548 19,0.5870000123977661 C19,0.5870000123977661 19,3.4130001068115234 19,3.4130001068115234 C19,3.737190008163452 18.737199783325195,4 18.413000106811523,4 C18.413000106811523,4 0.5870000123977661,4 0.5870000123977661,4 C0.26280999183654785,4 0,3.7372000217437744 0,3.4130001068115234 C0,3.4130001068115234 0,0.5870000123977661 0,0.5870000123977661 C0,0.26280999183654785 0.262800008058548,0 0.5870000123977661,0 C0.5870000123977661,0 0.5870000123977661,0 0.5870000123977661,0 C0.5870000123977661,0 0.5870000123977661,0 0.5870000123977661,0z"></path></g></g><g mask="url(#__lottie_element_138)" transform="matrix(1,0,0,1,25.082698822021484,33.95560073852539)" opacity="1" style="display: block;"><g opacity="1" transform="matrix(1,0,0,1,0,0)"><path fill="rgb(0,255,0)" fill-opacity="0" d=" M30.26085090637207,-2.5869500637054443 C30.26085090637207,-2.5869500637054443 -10.086950302124023,-2.5869500637054443 -10.086950302124023,-2.5869500637054443 C-10.086950302124023,-2.5869500637054443 -10.086950302124023,7.760849952697754 -10.086950302124023,7.760849952697754 C-10.086950302124023,7.760849952697754 30.26085090637207,7.760849952697754 30.26085090637207,7.760849952697754 C30.26085090637207,7.760849952697754 30.26085090637207,-2.5869500637054443 30.26085090637207,-2.5869500637054443z"></path></g><g opacity="1" transform="matrix(1,0,0,1,0,0)"><path stroke-linecap="butt" stroke-linejoin="miter" fill-opacity="0" stroke-miterlimit="4" stroke="rgb(128,128,128)" stroke-opacity="1" stroke-width="2.3478" d=" M0.5870000123977661,0 C0.5870000123977661,0 18.413000106811523,0 18.413000106811523,0 C18.73719024658203,0 19,0.262800008058548 19,0.5870000123977661 C19,0.5870000123977661 19,3.4130001068115234 19,3.4130001068115234 C19,3.737190008163452 18.737199783325195,4 18.413000106811523,4 C18.413000106811523,4 0.5870000123977661,4 0.5870000123977661,4 C0.26280999183654785,4 0,3.7372000217437744 0,3.4130001068115234 C0,3.4130001068115234 0,0.5870000123977661 0,0.5870000123977661 C0,0.26280999183654785 0.262800008058548,0 0.5870000123977661,0 C0.5870000123977661,0 0.5870000123977661,0 0.5870000123977661,0 C0.5870000123977661,0 0.5870000123977661,0 0.5870000123977661,0z"></path></g></g><g transform="matrix(0.9999999403953552,0.008699999190866947,-0.017425548285245895,0.9998483657836914,25.098068237304688,29.4332275390625)" opacity="1" style="display: block;"><g opacity="1" transform="matrix(1,0,0,1,0,0)"><path fill="rgb(255,255,255)" fill-opacity="1" d=" M0.5870000123977661,0 C0.5870000123977661,0 18.34950065612793,0 18.34950065612793,0 C18.673690795898438,0 18.936500549316406,0.262800008058548 18.936500549316406,0.5870000123977661 C18.936500549316406,0.5870000123977661 18.936500549316406,2.935699939727783 18.936500549316406,2.935699939727783 C18.936500549316406,3.259890079498291 18.6737003326416,3.522700071334839 18.34950065612793,3.522700071334839 C18.34950065612793,3.522700071334839 0.5870000123977661,3.522700071334839 0.5870000123977661,3.522700071334839 C0.26280999183654785,3.522700071334839 0,3.2599000930786133 0,2.935699939727783 C0,2.935699939727783 0,0.5870000123977661 0,0.5870000123977661 C0,0.26280999183654785 0.262800008058548,0 0.5870000123977661,0 C0.5870000123977661,0 0.5870000123977661,0 0.5870000123977661,0 C0.5870000123977661,0 0.5870000123977661,0 0.5870000123977661,0z"></path></g></g><g mask="url(#__lottie_element_131)" transform="matrix(0.9999999403953552,0.008699999190866947,-0.017425548285245895,0.9998483657836914,25.098068237304688,29.4332275390625)" opacity="1" style="display: block;"><g opacity="1" transform="matrix(1,0,0,1,0,0)"><path fill="rgb(0,255,0)" fill-opacity="0" d=" M30.165599822998047,-2.348299980163574 C30.165599822998047,-2.348299980163574 -10.05519962310791,-2.348299980163574 -10.05519962310791,-2.348299980163574 C-10.05519962310791,-2.348299980163574 -10.05519962310791,7.044899940490723 -10.05519962310791,7.044899940490723 C-10.05519962310791,7.044899940490723 30.165599822998047,7.044899940490723 30.165599822998047,7.044899940490723 C30.165599822998047,7.044899940490723 30.165599822998047,-2.348299980163574 30.165599822998047,-2.348299980163574z"></path></g><g opacity="1" transform="matrix(1,0,0,1,0,0)"><path stroke-linecap="butt" stroke-linejoin="miter" fill-opacity="0" stroke-miterlimit="4" stroke="rgb(128,128,128)" stroke-opacity="1" stroke-width="2.3478" d=" M0.5870000123977661,0 C0.5870000123977661,0 18.34950065612793,0 18.34950065612793,0 C18.673690795898438,0 18.936500549316406,0.262800008058548 18.936500549316406,0.5870000123977661 C18.936500549316406,0.5870000123977661 18.936500549316406,2.935699939727783 18.936500549316406,2.935699939727783 C18.936500549316406,3.259890079498291 18.6737003326416,3.522700071334839 18.34950065612793,3.522700071334839 C18.34950065612793,3.522700071334839 0.5870000123977661,3.522700071334839 0.5870000123977661,3.522700071334839 C0.26280999183654785,3.522700071334839 0,3.2599000930786133 0,2.935699939727783 C0,2.935699939727783 0,0.5870000123977661 0,0.5870000123977661 C0,0.26280999183654785 0.262800008058548,0 0.5870000123977661,0 C0.5870000123977661,0 0.5870000123977661,0 0.5870000123977661,0 C0.5870000123977661,0 0.5870000123977661,0 0.5870000123977661,0z"></path></g></g><g transform="matrix(1,0,0,1,25.082698822021484,24.4330997467041)" opacity="1" style="display: block;"><g opacity="1" transform="matrix(1,0,0,1,0,0)"><path fill="rgb(255,255,255)" fill-opacity="1" d=" M0.5870000123977661,0 C0.5870000123977661,0 18.413000106811523,0 18.413000106811523,0 C18.73719024658203,0 19,0.262800008058548 19,0.5870000123977661 C19,0.5870000123977661 19,3.4130001068115234 19,3.4130001068115234 C19,3.737190008163452 18.737199783325195,4 18.413000106811523,4 C18.413000106811523,4 0.5870000123977661,4 0.5870000123977661,4 C0.26280999183654785,4 0,3.7372000217437744 0,3.4130001068115234 C0,3.4130001068115234 0,0.5870000123977661 0,0.5870000123977661 C0,0.26280999183654785 0.262800008058548,0 0.5870000123977661,0 C0.5870000123977661,0 0.5870000123977661,0 0.5870000123977661,0 C0.5870000123977661,0 0.5870000123977661,0 0.5870000123977661,0z"></path></g></g><g mask="url(#__lottie_element_124)" transform="matrix(1,0,0,1,25.082698822021484,24.4330997467041)" opacity="1" style="display: block;"><g opacity="1" transform="matrix(1,0,0,1,0,0)"><path fill="rgb(0,255,0)" fill-opacity="0" d=" M30.26085090637207,-2.5869500637054443 C30.26085090637207,-2.5869500637054443 -10.086950302124023,-2.5869500637054443 -10.086950302124023,-2.5869500637054443 C-10.086950302124023,-2.5869500637054443 -10.086950302124023,7.760849952697754 -10.086950302124023,7.760849952697754 C-10.086950302124023,7.760849952697754 30.26085090637207,7.760849952697754 30.26085090637207,7.760849952697754 C30.26085090637207,7.760849952697754 30.26085090637207,-2.5869500637054443 30.26085090637207,-2.5869500637054443z"></path></g><g opacity="1" transform="matrix(1,0,0,1,0,0)"><path stroke-linecap="butt" stroke-linejoin="miter" fill-opacity="0" stroke-miterlimit="4" stroke="rgb(128,128,128)" stroke-opacity="1" stroke-width="2.3478" d=" M0.5870000123977661,0 C0.5870000123977661,0 18.413000106811523,0 18.413000106811523,0 C18.73719024658203,0 19,0.262800008058548 19,0.5870000123977661 C19,0.5870000123977661 19,3.4130001068115234 19,3.4130001068115234 C19,3.737190008163452 18.737199783325195,4 18.413000106811523,4 C18.413000106811523,4 0.5870000123977661,4 0.5870000123977661,4 C0.26280999183654785,4 0,3.7372000217437744 0,3.4130001068115234 C0,3.4130001068115234 0,0.5870000123977661 0,0.5870000123977661 C0,0.26280999183654785 0.262800008058548,0 0.5870000123977661,0 C0.5870000123977661,0 0.5870000123977661,0 0.5870000123977661,0 C0.5870000123977661,0 0.5870000123977661,0 0.5870000123977661,0z"></path></g></g><g transform="matrix(1,0,0,1,25.082700729370117,47.95560073852539)" opacity="1" style="display: block;"><g opacity="1" transform="matrix(1,0,0,1,0,0)"><path fill="rgb(255,255,255)" fill-opacity="1" d=" M0.5870000123977661,0 C0.5870000123977661,0 18.413000106811523,0 18.413000106811523,0 C18.73719024658203,0 19,0.262800008058548 19,0.5870000123977661 C19,0.5870000123977661 19,3.4130001068115234 19,3.4130001068115234 C19,3.737190008163452 18.737199783325195,4 18.413000106811523,4 C18.413000106811523,4 0.5870000123977661,4 0.5870000123977661,4 C0.26280999183654785,4 0,3.7372000217437744 0,3.4130001068115234 C0,3.4130001068115234 0,0.5870000123977661 0,0.5870000123977661 C0,0.26280999183654785 0.262800008058548,0 0.5870000123977661,0 C0.5870000123977661,0 0.5870000123977661,0 0.5870000123977661,0 C0.5870000123977661,0 0.5870000123977661,0 0.5870000123977661,0z"></path></g></g><g mask="url(#__lottie_element_117)" transform="matrix(1,0,0,1,25.082700729370117,47.95560073852539)" opacity="1" style="display: block;"><g opacity="1" transform="matrix(1,0,0,1,0,0)"><path fill="rgb(0,255,0)" fill-opacity="0" d=" M30.26085090637207,-2.5869500637054443 C30.26085090637207,-2.5869500637054443 -10.086950302124023,-2.5869500637054443 -10.086950302124023,-2.5869500637054443 C-10.086950302124023,-2.5869500637054443 -10.086950302124023,7.760849952697754 -10.086950302124023,7.760849952697754 C-10.086950302124023,7.760849952697754 30.26085090637207,7.760849952697754 30.26085090637207,7.760849952697754 C30.26085090637207,7.760849952697754 30.26085090637207,-2.5869500637054443 30.26085090637207,-2.5869500637054443z"></path></g><g opacity="1" transform="matrix(1,0,0,1,0,0)"><path stroke-linecap="butt" stroke-linejoin="miter" fill-opacity="0" stroke-miterlimit="4" stroke="rgb(128,128,128)" stroke-opacity="1" stroke-width="2.3478" d=" M0.5870000123977661,0 C0.5870000123977661,0 18.413000106811523,0 18.413000106811523,0 C18.73719024658203,0 19,0.262800008058548 19,0.5870000123977661 C19,0.5870000123977661 19,3.4130001068115234 19,3.4130001068115234 C19,3.737190008163452 18.737199783325195,4 18.413000106811523,4 C18.413000106811523,4 0.5870000123977661,4 0.5870000123977661,4 C0.26280999183654785,4 0,3.7372000217437744 0,3.4130001068115234 C0,3.4130001068115234 0,0.5870000123977661 0,0.5870000123977661 C0,0.26280999183654785 0.262800008058548,0 0.5870000123977661,0 C0.5870000123977661,0 0.5870000123977661,0 0.5870000123977661,0 C0.5870000123977661,0 0.5870000123977661,0 0.5870000123977661,0z"></path></g></g><g clip-path="url(#__lottie_element_96)" transform="matrix(1,0,0,1,0,0)" opacity="1" style="display: block;"><g transform="matrix(1,0,0,1,34,31)" opacity="1" style="display: block;"><g opacity="1" transform="matrix(1,0,0,1,0,0)"><path fill="rgb(255,255,255)" fill-opacity="1" d=" M21.130399703979492,10.565199851989746 C21.130399703979492,16.400400161743164 16.400400161743164,21.130399703979492 10.565199851989746,21.130399703979492 C4.730000019073486,21.130399703979492 0,16.400400161743164 0,10.565199851989746 C0,4.730000019073486 4.730000019073486,0 10.565199851989746,0 C16.400400161743164,0 21.130399703979492,4.730000019073486 21.130399703979492,10.565199851989746 C21.130399703979492,10.565199851989746 21.130399703979492,10.565199851989746 21.130399703979492,10.565199851989746 C21.130399703979492,10.565199851989746 21.130399703979492,10.565199851989746 21.130399703979492,10.565199851989746z"></path></g></g><g mask="url(#__lottie_element_110)" transform="matrix(1,0,0,1,34,31)" opacity="1" style="display: block;"><g opacity="1" transform="matrix(1,0,0,1,0,0)"><path fill="rgb(0,255,0)" fill-opacity="0" d=" M33.456451416015625,-11.15215015411377 C33.456451416015625,-11.15215015411377 -11.15215015411377,-11.15215015411377 -11.15215015411377,-11.15215015411377 C-11.15215015411377,-11.15215015411377 -11.15215015411377,33.456451416015625 -11.15215015411377,33.456451416015625 C-11.15215015411377,33.456451416015625 33.456451416015625,33.456451416015625 33.456451416015625,33.456451416015625 C33.456451416015625,33.456451416015625 33.456451416015625,-11.15215015411377 33.456451416015625,-11.15215015411377z"></path></g><g opacity="1" transform="matrix(1,0,0,1,0,0)"><path stroke-linecap="butt" stroke-linejoin="miter" fill-opacity="0" stroke-miterlimit="4" stroke="rgb(128,128,128)" stroke-opacity="1" stroke-width="2.3478" d=" M21.130399703979492,10.565199851989746 C21.130399703979492,16.400400161743164 16.400400161743164,21.130399703979492 10.565199851989746,21.130399703979492 C4.730000019073486,21.130399703979492 0,16.400400161743164 0,10.565199851989746 C0,4.730000019073486 4.730000019073486,0 10.565199851989746,0 C16.400400161743164,0 21.130399703979492,4.730000019073486 21.130399703979492,10.565199851989746 C21.130399703979492,10.565199851989746 21.130399703979492,10.565199851989746 21.130399703979492,10.565199851989746 C21.130399703979492,10.565199851989746 21.130399703979492,10.565199851989746 21.130399703979492,10.565199851989746z"></path></g></g><g transform="matrix(1,0,0,1,36.34770202636719,33.34770202636719)" opacity="1" style="display: block;"><g opacity="1" transform="matrix(1,0,0,1,0,0)"><path fill="rgb(0,0,0)" fill-opacity="1" d=" M16.434799194335938,8.217399597167969 C16.434799194335938,12.755900382995605 12.755900382995605,16.434799194335938 8.217399597167969,16.434799194335938 C3.6789000034332275,16.434799194335938 0,12.755900382995605 0,8.217399597167969 C0,3.6789000034332275 3.6789000034332275,0 8.217399597167969,0 C12.755900382995605,0 16.434799194335938,3.6789000034332275 16.434799194335938,8.217399597167969 C16.434799194335938,8.217399597167969 16.434799194335938,8.217399597167969 16.434799194335938,8.217399597167969 C16.434799194335938,8.217399597167969 16.434799194335938,8.217399597167969 16.434799194335938,8.217399597167969z"></path></g></g><g transform="matrix(1,0,0,1,41.62889862060547,36.28269958496094)" opacity="1" style="display: block;"><g opacity="1" transform="matrix(1,0,0,1,0,0)"><path fill="rgb(255,255,255)" fill-opacity="1" d=" M5.1066999435424805,7.191299915313721 C5.1066999435424805,6.795939922332764 4.981400012969971,6.475500106811523 4.730599880218506,6.229800224304199 C4.479849815368652,5.984139919281006 4.059599876403809,5.790299892425537 3.4697999954223633,5.6483001708984375 C3.4697999954223633,5.6483001708984375 3.4697999954223633,8.74590015411377 3.4697999954223633,8.74590015411377 C3.985419988632202,8.69983959197998 4.386199951171875,8.540499687194824 4.672299861907959,8.267999649047852 C4.96189022064209,7.99547004699707 5.1066999435424805,7.636499881744385 5.1066999435424805,7.191299915313721 C5.1066999435424805,7.191299915313721 5.1066999435424805,7.191299915313721 5.1066999435424805,7.191299915313721 C5.1066999435424805,7.191299915313721 5.1066999435424805,7.191299915313721 5.1066999435424805,7.191299915313721z M2.7335000038146973,4.703999996185303 C2.7335000038146973,4.703999996185303 2.7335000038146973,1.8021999597549438 2.7335000038146973,1.8021999597549438 C2.299109935760498,1.8444199562072754 1.954800009727478,1.9845000505447388 1.7005000114440918,2.2225000858306885 C1.44622004032135,2.460479974746704 1.319100022315979,2.7732999324798584 1.319100022315979,3.1610000133514404 C1.319100022315979,3.5525200366973877 1.4337999820709229,3.872999906539917 1.6634000539779663,4.122499942779541 C1.8929599523544312,4.368159770965576 2.2497000694274902,4.561999797821045 2.7335000038146973,4.703999996185303 C2.7335000038146973,4.703999996185303 2.7335000038146973,4.703999996185303 2.7335000038146973,4.703999996185303 C2.7335000038146973,4.703999996185303 2.7335000038146973,4.703999996185303 2.7335000038146973,4.703999996185303z M3.4697999954223633,9.500100135803223 C3.4697999954223633,9.500100135803223 3.4697999954223633,10.565299987792969 3.4697999954223633,10.565299987792969 C3.4697999954223633,10.565299987792969 2.7335000038146973,10.565299987792969 2.7335000038146973,10.565299987792969 C2.7335000038146973,10.565299987792969 2.7335000038146973,9.500100135803223 2.7335000038146973,9.500100135803223 C2.069550037384033,9.434849739074707 1.4974000453948975,9.181500434875488 1.0170999765396118,8.740099906921387 C0.5403299927711487,8.298680305480957 0.2012999951839447,7.707600116729736 0,6.966800212860107 C0,6.966800212860107 0.6621999740600586,6.563799858093262 0.6621999740600586,6.563799858093262 C0.8317199945449829,7.197140216827393 1.0894999504089355,7.701900005340576 1.4356000423431396,8.078100204467773 C1.785230040550232,8.454259872436523 2.217900037765503,8.676899909973145 2.7335000038146973,8.746000289916992 C2.7335000038146973,8.746000289916992 2.7335000038146973,5.493000030517578 2.7335000038146973,5.493000030517578 C2.044830083847046,5.32411003112793 1.5097999572753906,5.043900012969971 1.1283999681472778,4.652400016784668 C0.7505199909210205,4.260879993438721 0.5616000294685364,3.7715001106262207 0.5616000294685364,3.1842000484466553 C0.5616000294685364,2.631469964981079 0.7628999948501587,2.151700019836426 1.1655000448226929,1.7447999715805054 C1.5716400146484375,1.3379299640655518 2.0943000316619873,1.1057000160217285 2.7335000038146973,1.0480999946594238 C2.7335000038146973,1.0480999946594238 2.7335000038146973,0.00019999999494757503 2.7335000038146973,0.00019999999494757503 C2.7335000038146973,0.00019999999494757503 3.4697999954223633,0.00019999999494757503 3.4697999954223633,0.00019999999494757503 C3.4697999954223633,0.00019999999494757503 3.4697999954223633,1.0595999956130981 3.4697999954223633,1.0595999956130981 C3.9677600860595703,1.1325299739837646 4.395100116729736,1.330199956893921 4.751800060272217,1.6526000499725342 C5.112030029296875,1.9750299453735352 5.382199764251709,2.406899929046631 5.562300205230713,2.9481000900268555 C5.562300205230713,2.9481000900268555 4.889500141143799,3.3568999767303467 4.889500141143799,3.3568999767303467 C4.6528801918029785,2.489419937133789 4.179699897766113,1.982800006866455 3.4697999954223633,1.836899995803833 C3.4697999954223633,1.836899995803833 3.4697999954223633,4.882699966430664 3.4697999954223633,4.882699966430664 C4.317389965057373,5.063109874725342 4.928400039672852,5.3317999839782715 5.302700042724609,5.688799858093262 C5.680580139160156,6.041930198669434 5.869500160217285,6.519899845123291 5.869500160217285,7.122499942779541 C5.869500160217285,7.755839824676514 5.643400192260742,8.29319953918457 5.191400051116943,8.734600067138672 C4.739349842071533,9.17218017578125 4.16540002822876,9.427499771118164 3.4697000980377197,9.500399589538574 C3.4697000980377197,9.500399589538574 3.4697999954223633,9.500100135803223 3.4697999954223633,9.500100135803223 C3.4697999954223633,9.500100135803223 3.4697999954223633,9.500100135803223 3.4697999954223633,9.500100135803223z"></path></g></g></g></g></g></svg>