<svg xmlns="http://www.w3.org/2000/svg" xmlns:xlink="http://www.w3.org/1999/xlink" viewBox="0 0 70 70" width="70" height="70" preserveAspectRatio="xMidYMid meet" style="width: 100%; height: 100%; transform: translate3d(0px, 0px, 0px); content-visibility: visible;"><defs><clipPath id="__lottie_element_2"><rect width="70" height="70" x="0" y="0"></rect></clipPath><clipPath id="__lottie_element_4"><path d="M0,0 L70,0 L70,70 L0,70z"></path></clipPath><clipPath id="__lottie_element_9"><path d="M0,0 L70,0 L70,70 L0,70z"></path></clipPath><clipPath id="__lottie_element_14"><path d="M0,0 L70,0 L70,70 L0,70z"></path></clipPath><clipPath id="__lottie_element_20"><path d="M0,0 L70,0 L70,70 L0,70z"></path></clipPath><clipPath id="__lottie_element_55"><path d="M0,0 L70,0 L70,70 L0,70z"></path></clipPath><clipPath id="__lottie_element_61"><path fill="#ffffff" clip-rule="nonzero" d=" M36.51139831542969,18.255699157714844 C36.51139831542969,28.338300704956055 28.338300704956055,36.51139831542969 18.255699157714844,36.51139831542969 C8.173100471496582,36.51139831542969 0,28.338300704956055 0,18.255699157714844 C0,8.173100471496582 8.173100471496582,0 18.255699157714844,0 C28.338300704956055,0 36.51139831542969,8.173100471496582 36.51139831542969,18.255699157714844 C36.51139831542969,18.255699157714844 36.51139831542969,18.255699157714844 36.51139831542969,18.255699157714844 C36.51139831542969,18.255699157714844 36.51139831542969,18.255699157714844 36.51139831542969,18.255699157714844" fill-opacity="1"></path></clipPath></defs><g clip-path="url(#__lottie_element_2)"><g clip-path="url(#__lottie_element_4)" transform="matrix(1,0,0,1,0,0)" opacity="1" style="display: block;"><g clip-path="url(#__lottie_element_55)" transform="matrix(1,0,0,1,0,0)" opacity="1" style="display: block;"><g transform="matrix(1,0,0,1,0,0)" opacity="1" style="display: block;"><g opacity="1" transform="matrix(1,0,0,1,0,0)"><path fill="#030015" fill-opacity="1" d=" M0,0 C0,0 70,0 70,0 C70,0 70,0 70,0 C70,0 70,70 70,70 C70,70 70,70 70,70 C70,70 0,70 0,70 C0,70 0,70 0,70 C0,70 0,0 0,0 C0,0 0,0 0,0z"></path></g></g><g transform="matrix(0,-1,1,0,24,50)" opacity="1" style="display: block;"><g opacity="1" transform="matrix(1,0,0,1,0,0)"><path fill="rgb(0,0,0)" fill-opacity="1" d=" M21.99340057373047,11.383899688720703 C21.783300399780273,17.3887996673584 16.814599990844727,22.1023006439209 10.807499885559082,21.997800827026367 C4.8003997802734375,21.893299102783203 0,17.00819969177246 0,11 C0,4.991799831390381 4.801499843597412,0.10670000314712524 10.808600425720215,0.002199999988079071 C16.81570053100586,-0.1023000031709671 21.784400939941406,4.612299919128418 21.99340057373047,10.617199897766113 C21.99340057373047,10.617199897766113 11,11 11,11 C11,11 11,11 11,11 C11,11 11,11 11,11 C11,11 11,11 11,11 C11,11 11,11 11,11"></path></g></g><g transform="matrix(0.7071067690849304,-0.7071067690849304,0.7071067690849304,0.7071067690849304,22.273399353027344,51.72800064086914)" opacity="1" style="display: block;"><g opacity="1" transform="matrix(1,0,0,1,0,0)"><path fill="rgb(0,255,0)" fill-opacity="0" d=" M55.5,-0.5 C55.5,-0.5 -18.5,-0.5 -18.5,-0.5 C-18.5,-0.5 -18.5,1.5 -18.5,1.5 C-18.5,1.5 55.5,1.5 55.5,1.5 C55.5,1.5 55.5,-0.5 55.5,-0.5z"></path></g><g opacity="1" transform="matrix(1,0,0,1,0,0)"><path stroke-linecap="butt" stroke-linejoin="miter" fill-opacity="0" stroke-miterlimit="4" stroke="#fff" stroke-opacity="1" stroke-width="1" d=" M0,0 C0,0 36,0 36,0"></path></g></g><g transform="matrix(1,0,0,1,17,39)" opacity="1" style="display: block;"><g opacity="1" transform="matrix(1,0,0,1,0,0)"><path fill="rgb(0,255,0)" fill-opacity="0" d=" M55.5,-0.5 C55.5,-0.5 -18.5,-0.5 -18.5,-0.5 C-18.5,-0.5 -18.5,1.5 -18.5,1.5 C-18.5,1.5 55.5,1.5 55.5,1.5 C55.5,1.5 55.5,-0.5 55.5,-0.5z"></path></g><g opacity="1" transform="matrix(1,0,0,1,0,0)"><path stroke-linecap="butt" stroke-linejoin="miter" fill-opacity="0" stroke-miterlimit="4" stroke="#fff" stroke-opacity="1" stroke-width="1" d=" M0,0 C0,0 36,0 36,0"></path></g></g><g transform="matrix(0,-1,1,0,35,57)" opacity="1" style="display: block;"><g opacity="1" transform="matrix(1,0,0,1,0,0)"><path fill="rgb(0,255,0)" fill-opacity="0" d=" M55.5,-0.5 C55.5,-0.5 -18.5,-0.5 -18.5,-0.5 C-18.5,-0.5 -18.5,1.5 -18.5,1.5 C-18.5,1.5 55.5,1.5 55.5,1.5 C55.5,1.5 55.5,-0.5 55.5,-0.5z"></path></g><g opacity="1" transform="matrix(1,0,0,1,0,0)"><path stroke-linecap="butt" stroke-linejoin="miter" fill-opacity="0" stroke-miterlimit="4" stroke="#fff" stroke-opacity="1" stroke-width="1" d=" M0,0 C0,0 36,0 36,0"></path></g></g><g transform="matrix(0.7071067690849304,0.7071067690849304,-0.7071067690849304,0.7071067690849304,22.273399353027344,26.27199935913086)" opacity="1" style="display: block;"><g opacity="1" transform="matrix(1,0,0,1,0,0)"><path fill="rgb(0,255,0)" fill-opacity="0" d=" M55.5,-0.5 C55.5,-0.5 -18.5,-0.5 -18.5,-0.5 C-18.5,-0.5 -18.5,1.5 -18.5,1.5 C-18.5,1.5 55.5,1.5 55.5,1.5 C55.5,1.5 55.5,-0.5 55.5,-0.5z"></path></g><g opacity="1" transform="matrix(1,0,0,1,0,0)"><path stroke-linecap="butt" stroke-linejoin="miter" fill-opacity="0" stroke-miterlimit="4" stroke="#fff" stroke-opacity="1" stroke-width="1" d=" M0,0 C0,0 36,0 36,0"></path></g></g><g clip-path="url(#__lottie_element_61)" transform="matrix(1,0,0,1,17,20.758800506591797)" opacity="1" style="display: block;"><g opacity="1" transform="matrix(1,0,0,1,0,0)"><path fill="rgb(0,255,0)" fill-opacity="0" d=" M57.117149353027344,-19.03904914855957 C57.117149353027344,-19.03904914855957 -19.03904914855957,-19.03904914855957 -19.03904914855957,-19.03904914855957 C-19.03904914855957,-19.03904914855957 -19.03904914855957,57.117149353027344 -19.03904914855957,57.117149353027344 C-19.03904914855957,57.117149353027344 57.117149353027344,57.117149353027344 57.117149353027344,57.117149353027344 C57.117149353027344,57.117149353027344 57.117149353027344,-19.03904914855957 57.117149353027344,-19.03904914855957z"></path></g><g opacity="1" transform="matrix(1,0,0,1,0,0)"><path stroke-linecap="butt" stroke-linejoin="miter" fill-opacity="0" stroke-miterlimit="4" stroke="rgb(255,255,255)" stroke-opacity="1" stroke-width="3.1334" d=" M36.51139831542969,18.255699157714844 C36.51139831542969,28.338300704956055 28.338300704956055,36.51139831542969 18.255699157714844,36.51139831542969 C8.173100471496582,36.51139831542969 0,28.338300704956055 0,18.255699157714844 C0,8.173100471496582 8.173100471496582,0 18.255699157714844,0 C28.338300704956055,0 36.51139831542969,8.173100471496582 36.51139831542969,18.255699157714844 C36.51139831542969,18.255699157714844 36.51139831542969,18.255699157714844 36.51139831542969,18.255699157714844 C36.51139831542969,18.255699157714844 36.51139831542969,18.255699157714844 36.51139831542969,18.255699157714844z"></path></g></g></g><g transform="matrix(0.8660193085670471,0.50001060962677,0.50001060962677,-0.8660193085670471,25,21.463899612426758)" opacity="1" style="display: block;"><g opacity="1" transform="matrix(1,0,0,1,0,0)"><path fill="rgb(255,255,255)" fill-opacity="1" d=" M0,0 C0,0 4,0 4,0 C4,0 4,0 4,0 C4,0 4,3 4,3 C4,3 4,3 4,3 C4,3 0,3 0,3 C0,3 0,3 0,3 C0,3 0,0 0,0 C0,0 0,0 0,0z"></path></g></g><g transform="matrix(-0.8660193085670471,-0.50001060962677,0.50001060962677,-0.8660193085670471,45.46480178833008,21.463899612426758)" opacity="1" style="display: block;"><g opacity="1" transform="matrix(1,0,0,1,0,0)"><path fill="rgb(255,255,255)" fill-opacity="1" d=" M0,0 C0,0 4,0 4,0 C4,0 4,0 4,0 C4,0 4,3 4,3 C4,3 4,3 4,3 C4,3 0,3 0,3 C0,3 0,3 0,3 C0,3 0,0 0,0 C0,0 0,0 0,0z"></path></g></g><g transform="matrix(-1,0,0,-1,37.5,19)" opacity="1" style="display: block;"><g opacity="1" transform="matrix(1,0,0,1,0,0)"><path fill="rgb(255,255,255)" fill-opacity="1" d=" M0,0 C0,0 5,0 5,0 C5,0 5,2 5,2 C5,2 0,2 0,2 C0,2 0,0 0,0 C0,0 0,0 0,0z"></path></g></g><g transform="matrix(-1,0,0,-1,38.5,18)" opacity="1" style="display: block;"><g opacity="1" transform="matrix(1,0,0,1,0,0)"><path fill="rgb(255,255,255)" fill-opacity="1" d=" M0,0 C0,0 7,0 7,0 C7,0 7,4 7,4 C7,4 0,4 0,4 C0,4 0,0 0,0 C0,0 0,0 0,0z"></path></g></g><g clip-path="url(#__lottie_element_9)" transform="matrix(1,0,0,1,0,0)" opacity="1" style="display: block;"><g clip-path="url(#__lottie_element_14)" transform="matrix(1,0,0,1,0,0)" opacity="1" style="display: block;"><g transform="matrix(0.9999999403953552,0,0,0.9999999403953552,17.003469467163086,20.75832748413086)" opacity="1" style="display: block;"><g opacity="1" transform="matrix(1,0,0,1,0,0)"><path fill="rgb(217,217,217)" fill-opacity="0" d=" M36.51139831542969,18.255699157714844 C36.51139831542969,28.338300704956055 28.338300704956055,36.51139831542969 18.255699157714844,36.51139831542969 C8.173100471496582,36.51139831542969 0,28.338300704956055 0,18.255699157714844 C0,8.173100471496582 8.173100471496582,0 18.255699157714844,0 C28.338300704956055,0 36.51139831542969,8.173100471496582 36.51139831542969,18.255699157714844 C36.51139831542969,18.255699157714844 36.51139831542969,18.255699157714844 36.51139831542969,18.255699157714844 C36.51139831542969,18.255699157714844 36.51139831542969,18.255699157714844 36.51139831542969,18.255699157714844z"></path></g></g><g clip-path="url(#__lottie_element_20)" transform="matrix(1,0,0,1,0,0)" opacity="1" style="display: block;"><g transform="matrix(-0.9999999403953552,0,0,0.9999999403953552,37.42576599121094,37.00002670288086)" opacity="1" style="display: block;"><g opacity="1" transform="matrix(1,0,0,1,0,0)"><path fill="rgb(255,255,255)" fill-opacity="1" d=" M5,2.5 C5,3.8807098865509033 3.88070011138916,5 2.5,5 C1.1192899942398071,5 0,3.88070011138916 0,2.5 C0,1.1192899942398071 1.1193000078201294,0 2.5,0 C3.8807098865509033,0 5,1.1193000078201294 5,2.5 C5,2.5 5,2.5 5,2.5 C5,2.5 5,2.5 5,2.5z"></path></g></g><g transform="matrix(0.9999999403953552,0,0,0.9999999403953552,32.00457000732422,25.000627517700195)" opacity="1" style="display: block;"><g opacity="1" transform="matrix(1,0,0,1,0,0)"><path fill-rule="evenodd" fill="rgb(255,255,255)" fill-opacity="1" d=" M0.054999999701976776,15 C0.045570001006126404,14.94950008392334 0.03739999979734421,14.898599624633789 0.030500000342726707,14.847200393676758 C0.030500000342726707,14.847200393676758 -0.00009999999747378752,15 -0.00009999999747378752,15 C-0.00009999999747378752,15 0.054999999701976776,15 0.054999999701976776,15 C0.054999999701976776,15 0.054999999701976776,15 0.054999999701976776,15z M5.974100112915039,14.870400428771973 C5.967939853668213,14.913900375366211 5.9608001708984375,14.957099914550781 5.9527997970581055,15 C5.9527997970581055,15 6,15 6,15 C6,15 5.974100112915039,14.870400428771973 5.974100112915039,14.870400428771973 C5.974100112915039,14.870400428771973 5.974100112915039,14.870400428771973 5.974100112915039,14.870400428771973z M5.582200050354004,12.91100025177002 C5.582200050354004,12.91100025177002 3,0 3,0 C3,0 0.4138000011444092,12.930999755859375 0.4138000011444092,12.930999755859375 C0.9345700144767761,12.042400360107422 1.8995000123977661,11.445699691772461 3.0039000511169434,11.445699691772461 C4.099949836730957,11.445699691772461 5.058700084686279,12.033499717712402 5.582200050354004,12.91100025177002 C5.582200050354004,12.91100025177002 5.582200050354004,12.91100025177002 5.582200050354004,12.91100025177002 C5.582200050354004,12.91100025177002 5.582200050354004,12.91100025177002 5.582200050354004,12.91100025177002z"></path></g></g></g></g></g></g></g></svg>