<svg xmlns="http://www.w3.org/2000/svg" xmlns:xlink="http://www.w3.org/1999/xlink" viewBox="0 0 70 70" width="70" height="70" preserveAspectRatio="xMidYMid meet" style="width: 100%; height: 100%; transform: translate3d(0px, 0px, 0px); content-visibility: visible;"><defs><clipPath id="__lottie_element_168"><rect width="70" height="70" x="0" y="0"></rect></clipPath><clipPath id="__lottie_element_170"><path d="M0,0 L70,0 L70,70 L0,70z"></path></clipPath><clipPath id="__lottie_element_175"><path d="M0,0 L70,0 L70,70 L0,70z"></path></clipPath><clipPath id="__lottie_element_189"><path fill="#ffffff" clip-rule="nonzero" d=" M4.462699890136719,0 C4.462699890136719,0 14.769599914550781,0 14.769599914550781,0 C14.769599914550781,0 19.2322998046875,29.054500579833984 19.2322998046875,29.054500579833984 C19.2322998046875,29.054500579833984 0,29.054500579833984 0,29.054500579833984 C0,29.054500579833984 4.462699890136719,0 4.462699890136719,0 C4.462699890136719,0 4.462699890136719,0 4.462699890136719,0" fill-opacity="1"></path></clipPath><clipPath id="__lottie_element_248"><path d="M0,0 L70,0 L70,70 L0,70z"></path></clipPath><clipPath id="__lottie_element_257"><path d="M0,0 L70,0 L70,70 L0,70z"></path></clipPath></defs><g clip-path="url(#__lottie_element_168)"><g clip-path="url(#__lottie_element_170)" transform="matrix(1,0,0,1,0,0)" opacity="1" style="display: block;"><g transform="matrix(1,0,0,1,0,0)" opacity="1" style="display: block;"><g opacity="1" transform="matrix(1,0,0,1,0,0)"><path fill="#030015" fill-opacity="1" d=" M0,0 C0,0 70,0 70,0 C70,0 70,0 70,0 C70,0 70,70 70,70 C70,70 70,70 70,70 C70,70 0,70 0,70 C0,70 0,70 0,70 C0,70 0,0 0,0 C0,0 0,0 0,0z"></path></g></g><g clip-path="url(#__lottie_element_257)" transform="matrix(1,0,0,1,0,0)" opacity="1" style="display: block;"><g transform="matrix(1,0,0,1,11.388700485229492,11.39430046081543)" opacity="1" style="display: block;"><g opacity="1" transform="matrix(1,0,0,1,0,0)"><path fill-rule="evenodd" fill="#fff" fill-opacity="1" d=" M35.75899887084961,3.3696000576019287 C35.75899887084961,3.3696000576019287 37.61130142211914,1.1057000160217285 37.61130142211914,1.1057000160217285 C37.61130142211914,1.1057000160217285 40.11130142211914,7.6057000160217285 40.11130142211914,7.6057000160217285 C40.11130142211914,7.6057000160217285 33.11130142211914,6.6057000160217285 33.11130142211914,6.6057000160217285 C33.11130142211914,6.6057000160217285 34.9833984375,4.317500114440918 34.9833984375,4.317500114440918 C34.926300048828125,4.284090042114258 34.867401123046875,4.249800205230713 34.806400299072266,4.214600086212158 C24.09510040283203,-1.9695600271224976 10.398500442504883,1.7003999948501587 4.214399814605713,12.411700248718262 C1.1222399473190308,17.76740074157715 0.4936000108718872,23.86829948425293 1.9772000312805176,29.40530014038086 C1.9772000312805176,29.40530014038086 0.8080999851226807,29.7185001373291 0.8080999851226807,29.7185001373291 C-0.7552000284194946,23.884199142456055 -0.09279999881982803,17.451400756835938 3.166300058364868,11.806500434875488 C9.684679985046387,0.5163400173187256 24.121400833129883,-3.3519999980926514 35.4114990234375,3.1663999557495117 C35.53379821777344,3.236999988555908 35.64939880371094,3.3046000003814697 35.75899887084961,3.3696000576019287 C35.75899887084961,3.3696000576019287 35.75899887084961,3.3696000576019287 35.75899887084961,3.3696000576019287 C35.75899887084961,3.3696000576019287 35.75899887084961,3.3696000576019287 35.75899887084961,3.3696000576019287z"></path></g></g></g><g clip-path="url(#__lottie_element_248)" transform="matrix(1,0,0,1,0,0)" opacity="1" style="display: block;"><g transform="matrix(1,0,0,1,18.1835994720459,28.87649917602539)" opacity="1" style="display: block;"><g opacity="1" transform="matrix(1,0,0,1,0,0)"><path fill-rule="evenodd" fill="#fff" fill-opacity="1" d=" M38.44380187988281,0.3138999938964844 C39.93130111694336,5.8538498878479 39.30379867553711,11.959400177001953 36.209598541259766,17.31879997253418 C30.025400161743164,28.030099868774414 16.328899383544922,31.700000762939453 5.617700099945068,25.515899658203125 C5.497310161590576,25.446399688720703 5.384699821472168,25.38050079345703 5.2789998054504395,25.317699432373047 C5.2789998054504395,25.317699432373047 7.033999919891357,23.17690086364746 7.033999919891357,23.17690086364746 C7.033999919891357,23.17690086364746 0.00009999999747378752,22.16510009765625 0.00009999999747378752,22.16510009765625 C0.00009999999747378752,22.16510009765625 2.551100015640259,28.645299911499023 2.551100015640259,28.645299911499023 C2.551100015640259,28.645299911499023 4.503300189971924,26.263999938964844 4.503300189971924,26.263999938964844 C4.659510135650635,26.358299255371094 4.828400135040283,26.457700729370117 5.012599945068359,26.56399917602539 C16.30278968811035,33.082401275634766 30.73940086364746,29.214099884033203 37.2578010559082,17.923999786376953 C40.51919937133789,12.275199890136719 41.180198669433594,5.837500095367432 39.61280059814453,0 C39.61280059814453,0 38.44380187988281,0.3138999938964844 38.44380187988281,0.3138999938964844 C38.44380187988281,0.3138999938964844 38.44380187988281,0.3138999938964844 38.44380187988281,0.3138999938964844z"></path></g></g></g><g clip-path="url(#__lottie_element_175)" transform="matrix(1,0,0,1,0,0)" opacity="1" style="display: block;"><g transform="matrix(1,0,0,1,39.868499755859375,22.46579933166504)" opacity="1" style="display: block;"><g opacity="1" transform="matrix(1,0,0,1,0,0)"><path fill="rgb(0,255,0)" fill-opacity="0" d=" M16.433849334716797,-0.5 C16.433849334716797,-0.5 -5.477950096130371,-0.5 -5.477950096130371,-0.5 C-5.477950096130371,-0.5 -5.477950096130371,1.5 -5.477950096130371,1.5 C-5.477950096130371,1.5 16.433849334716797,1.5 16.433849334716797,1.5 C16.433849334716797,1.5 16.433849334716797,-0.5 16.433849334716797,-0.5z"></path></g><g opacity="1" transform="matrix(1,0,0,1,0,0)"><path stroke-linecap="butt" stroke-linejoin="miter" fill-opacity="0" stroke-miterlimit="4" stroke="#fff" stroke-opacity="1" stroke-width="1" d=" M0,0 C0,0 0,0 0,0"></path></g></g><g transform="matrix(1,0,0,1,19.204500198364258,24.729299545288086)" opacity="1" style="display: block;"><g opacity="1" transform="matrix(1,0,0,1,0,0)"><path fill="rgb(0,255,0)" fill-opacity="0" d=" M17.778749465942383,-0.5 C17.778749465942383,-0.5 -5.926249980926514,-0.5 -5.926249980926514,-0.5 C-5.926249980926514,-0.5 -5.926249980926514,1.5 -5.926249980926514,1.5 C-5.926249980926514,1.5 17.778749465942383,1.5 17.778749465942383,1.5 C17.778749465942383,1.5 17.778749465942383,-0.5 17.778749465942383,-0.5z"></path></g><g opacity="1" transform="matrix(1,0,0,1,0,0)"><path stroke-linecap="butt" stroke-linejoin="miter" fill-opacity="0" stroke-miterlimit="4" stroke="#fff" stroke-opacity="1" stroke-width="1" d=" M10.852499961853027,0 C10.852499961853027,0 10.852499961853027,0 10.852499961853027,0"></path></g></g><g transform="matrix(1,0,0,1,39.82680130004883,26.793100357055664)" opacity="1" style="display: block;"><g opacity="1" transform="matrix(1,0,0,1,0,0)"><path fill="rgb(0,255,0)" fill-opacity="0" d=" M17.778749465942383,-0.5 C17.778749465942383,-0.5 -5.926249980926514,-0.5 -5.926249980926514,-0.5 C-5.926249980926514,-0.5 -5.926249980926514,1.5 -5.926249980926514,1.5 C-5.926249980926514,1.5 17.778749465942383,1.5 17.778749465942383,1.5 C17.778749465942383,1.5 17.778749465942383,-0.5 17.778749465942383,-0.5z"></path></g><g opacity="1" transform="matrix(1,0,0,1,0,0)"><path stroke-linecap="butt" stroke-linejoin="miter" fill-opacity="0" stroke-miterlimit="4" stroke="#fff" stroke-opacity="1" stroke-width="1" d=" M0,0 C0,0 0,0 0,0"></path></g></g><g transform="matrix(1,0,0,1,40.743499755859375,34.48539733886719)" opacity="1" style="display: block;"><g opacity="1" transform="matrix(1,0,0,1,0,0)"><path fill="rgb(0,255,0)" fill-opacity="0" d=" M22.002899169921875,-0.5 C22.002899169921875,-0.5 -7.3343000411987305,-0.5 -7.3343000411987305,-0.5 C-7.3343000411987305,-0.5 -7.3343000411987305,1.5 -7.3343000411987305,1.5 C-7.3343000411987305,1.5 22.002899169921875,1.5 22.002899169921875,1.5 C22.002899169921875,1.5 22.002899169921875,-0.5 22.002899169921875,-0.5z"></path></g><g opacity="1" transform="matrix(1,0,0,1,0,0)"><path stroke-linecap="butt" stroke-linejoin="miter" fill-opacity="0" stroke-miterlimit="4" stroke="#fff" stroke-opacity="1" stroke-width="1" d=" M0,0 C0,0 0,0 0,0"></path></g></g><g transform="matrix(1,0,0,1,13.257800102233887,36.68239974975586)" opacity="1" style="display: block;"><g opacity="1" transform="matrix(1,0,0,1,0,0)"><path fill="rgb(0,255,0)" fill-opacity="0" d=" M23.548351287841797,-0.5 C23.548351287841797,-0.5 -7.84945011138916,-0.5 -7.84945011138916,-0.5 C-7.84945011138916,-0.5 -7.84945011138916,1.5 -7.84945011138916,1.5 C-7.84945011138916,1.5 23.548351287841797,1.5 23.548351287841797,1.5 C23.548351287841797,1.5 23.548351287841797,-0.5 23.548351287841797,-0.5z"></path></g><g opacity="1" transform="matrix(1,0,0,1,0,0)"><path stroke-linecap="butt" stroke-linejoin="miter" fill-opacity="0" stroke-miterlimit="4" stroke="#fff" stroke-opacity="1" stroke-width="1" d=" M14.69890022277832,0 C14.69890022277832,0 14.69890022277832,0 14.69890022277832,0"></path></g></g><g transform="matrix(1,0,0,1,42.24079895019531,44.994102478027344)" opacity="1" style="display: block;"><g opacity="1" transform="matrix(1,0,0,1,0,0)"><path fill="rgb(0,255,0)" fill-opacity="0" d=" M26.84535026550293,-0.5 C26.84535026550293,-0.5 -8.948450088500977,-0.5 -8.948450088500977,-0.5 C-8.948450088500977,-0.5 -8.948450088500977,1.5 -8.948450088500977,1.5 C-8.948450088500977,1.5 26.84535026550293,1.5 26.84535026550293,1.5 C26.84535026550293,1.5 26.84535026550293,-0.5 26.84535026550293,-0.5z"></path></g><g opacity="1" transform="matrix(1,0,0,1,0,0)"><path stroke-linecap="butt" stroke-linejoin="miter" fill-opacity="0" stroke-miterlimit="4" stroke="#fff" stroke-opacity="1" stroke-width="1" d=" M0,0 C0,0 0,0 0,0"></path></g></g><g transform="matrix(1,0,0,1,16.7721004486084,38.951202392578125)" opacity="1" style="display: block;"><g opacity="1" transform="matrix(1,0,0,1,0,0)"><path fill="rgb(0,255,0)" fill-opacity="0" d=" M16.645349502563477,-0.5 C16.645349502563477,-0.5 -5.548449993133545,-0.5 -5.548449993133545,-0.5 C-5.548449993133545,-0.5 -5.548449993133545,1.5 -5.548449993133545,1.5 C-5.548449993133545,1.5 16.645349502563477,1.5 16.645349502563477,1.5 C16.645349502563477,1.5 16.645349502563477,-0.5 16.645349502563477,-0.5z"></path></g><g opacity="1" transform="matrix(1,0,0,1,0,0)"><path stroke-linecap="butt" stroke-linejoin="miter" fill-opacity="0" stroke-miterlimit="4" stroke="#fff" stroke-opacity="1" stroke-width="1" d=" M10.09689998626709,0 C10.09689998626709,0 10.09689998626709,0 10.09689998626709,0"></path></g></g><g transform="matrix(1,0,0,1,8.884199142456055,47.191200256347656)" opacity="1" style="display: block;"><g opacity="1" transform="matrix(1,0,0,1,0,0)"><path fill="rgb(0,255,0)" fill-opacity="0" d=" M27.232501983642578,-0.5 C27.232501983642578,-0.5 -9.077500343322754,-0.5 -9.077500343322754,-0.5 C-9.077500343322754,-0.5 -9.077500343322754,1.5 -9.077500343322754,1.5 C-9.077500343322754,1.5 27.232501983642578,1.5 27.232501983642578,1.5 C27.232501983642578,1.5 27.232501983642578,-0.5 27.232501983642578,-0.5z"></path></g><g opacity="1" transform="matrix(1,0,0,1,0,0)"><path stroke-linecap="butt" stroke-linejoin="miter" fill-opacity="0" stroke-miterlimit="4" stroke="#fff" stroke-opacity="1" stroke-width="1" d=" M17.155000686645508,0 C17.155000686645508,0 17.155000686645508,0 17.155000686645508,0"></path></g></g><g transform="matrix(0.9480569958686829,0.31778591871261597,-0.31778591871261597,0.9480569958686829,28.8971004486084,26.516599655151367)" opacity="1" style="display: block;"><g opacity="1" transform="matrix(1,0,0,1,0,0)"><path fill="rgb(0,255,0)" fill-opacity="0" d=" M20.625,-0.5 C20.625,-0.5 -6.875,-0.5 -6.875,-0.5 C-6.875,-0.5 -6.875,1.5 -6.875,1.5 C-6.875,1.5 20.625,1.5 20.625,1.5 C20.625,1.5 20.625,-0.5 20.625,-0.5z"></path></g><g opacity="1" transform="matrix(1,0,0,1,0,0)"><path stroke-linecap="butt" stroke-linejoin="miter" fill-opacity="0" stroke-miterlimit="4" stroke="#fff" stroke-opacity="0" stroke-width="1" d=" M0,0 C0,0 12.75,0 12.75,0"></path></g></g><g transform="matrix(-0.9486935138702393,0.31619715690612793,-0.31619715690612793,-0.9486935138702393,41.91270065307617,37.301902770996094)" opacity="1" style="display: block;"><g opacity="1" transform="matrix(1,0,0,1,0,0)"><path fill="rgb(0,255,0)" fill-opacity="0" d=" M25.93575096130371,-0.5 C25.93575096130371,-0.5 -8.64525032043457,-0.5 -8.64525032043457,-0.5 C-8.64525032043457,-0.5 -8.64525032043457,1.5 -8.64525032043457,1.5 C-8.64525032043457,1.5 25.93575096130371,1.5 25.93575096130371,1.5 C25.93575096130371,1.5 25.93575096130371,-0.5 25.93575096130371,-0.5z"></path></g><g opacity="1" transform="matrix(1,0,0,1,0,0)"><path stroke-linecap="butt" stroke-linejoin="miter" fill-opacity="0" stroke-miterlimit="4" stroke="#fff" stroke-opacity="0" stroke-width="1" d=" M0,0 C0,0 16.29050064086914,0 16.29050064086914,0"></path></g></g><g transform="matrix(0.9486935138702393,0.31619715690612793,-0.31619715690612793,0.9486935138702393,28.498699188232422,28.713699340820312)" opacity="1" style="display: block;"><g opacity="1" transform="matrix(1,0,0,1,0,0)"><path fill="rgb(0,255,0)" fill-opacity="0" d=" M21.700199127197266,-0.5 C21.700199127197266,-0.5 -7.233399868011475,-0.5 -7.233399868011475,-0.5 C-7.233399868011475,-0.5 -7.233399868011475,1.5 -7.233399868011475,1.5 C-7.233399868011475,1.5 21.700199127197266,1.5 21.700199127197266,1.5 C21.700199127197266,1.5 21.700199127197266,-0.5 21.700199127197266,-0.5z"></path></g><g opacity="1" transform="matrix(1,0,0,1,0,0)"><path stroke-linecap="butt" stroke-linejoin="miter" fill-opacity="0" stroke-miterlimit="4" stroke="#fff" stroke-opacity="0" stroke-width="1" d=" M0,0 C0,0 13.46679973602295,0 13.46679973602295,0"></path></g></g><g transform="matrix(-0.9502812027931213,0.31139302253723145,-0.31139302253723145,-0.9502812027931213,42.22010040283203,39.77560043334961)" opacity="1" style="display: block;"><g opacity="1" transform="matrix(1,0,0,1,0,0)"><path fill="rgb(0,255,0)" fill-opacity="0" d=" M26.97869873046875,-0.5 C26.97869873046875,-0.5 -8.992899894714355,-0.5 -8.992899894714355,-0.5 C-8.992899894714355,-0.5 -8.992899894714355,1.5 -8.992899894714355,1.5 C-8.992899894714355,1.5 26.97869873046875,1.5 26.97869873046875,1.5 C26.97869873046875,1.5 26.97869873046875,-0.5 26.97869873046875,-0.5z"></path></g><g opacity="1" transform="matrix(1,0,0,1,0,0)"><path stroke-linecap="butt" stroke-linejoin="miter" fill-opacity="0" stroke-miterlimit="4" stroke="#fff" stroke-opacity="0" stroke-width="1" d=" M0,0 C0,0 16.98579978942871,0 16.98579978942871,0"></path></g></g><g transform="matrix(0.947385311126709,0.3200954794883728,-0.3200954794883728,0.947385311126709,28.142000198364258,31.04880142211914)" opacity="1" style="display: block;"><g opacity="1" transform="matrix(1,0,0,1,0,0)"><path fill="rgb(0,255,0)" fill-opacity="0" d=" M17.595149993896484,-0.5 C17.595149993896484,-0.5 -5.865049839019775,-0.5 -5.865049839019775,-0.5 C-5.865049839019775,-0.5 -5.865049839019775,1.5 -5.865049839019775,1.5 C-5.865049839019775,1.5 17.595149993896484,1.5 17.595149993896484,1.5 C17.595149993896484,1.5 17.595149993896484,-0.5 17.595149993896484,-0.5z"></path></g><g opacity="1" transform="matrix(1,0,0,1,0,0)"><path stroke-linecap="butt" stroke-linejoin="miter" fill-opacity="0" stroke-miterlimit="4" stroke="#fff" stroke-opacity="0" stroke-width="1" d=" M0,0 C0,0 10.73009967803955,0 10.73009967803955,0"></path></g></g><g transform="matrix(-0.9453007578849792,0.32620012760162354,-0.32620012760162354,-0.9453007578849792,42.664100646972656,42.31559753417969)" opacity="1" style="display: block;"><g opacity="1" transform="matrix(1,0,0,1,0,0)"><path fill="rgb(0,255,0)" fill-opacity="0" d=" M13.816350936889648,-0.5 C13.816350936889648,-0.5 -4.60545015335083,-0.5 -4.60545015335083,-0.5 C-4.60545015335083,-0.5 -4.60545015335083,1.5 -4.60545015335083,1.5 C-4.60545015335083,1.5 13.816350936889648,1.5 13.816350936889648,1.5 C13.816350936889648,1.5 13.816350936889648,-0.5 13.816350936889648,-0.5z"></path></g><g opacity="1" transform="matrix(1,0,0,1,0,0)"><path stroke-linecap="butt" stroke-linejoin="miter" fill-opacity="0" stroke-miterlimit="4" stroke="#fff" stroke-opacity="0" stroke-width="1" d=" M0,0 C0,0 8.21090030670166,0 8.21090030670166,0"></path></g></g><g clip-path="url(#__lottie_element_189)" transform="matrix(1,0,0,1,25,20.0585994720459)" opacity="1" style="display: block;"><g opacity="1" transform="matrix(1,0,0,1,0,0)"><path fill="rgb(0,255,0)" fill-opacity="0" d=" M31.09844970703125,-15.277199745178223 C31.09844970703125,-15.277199745178223 -10.36614990234375,-15.277199745178223 -10.36614990234375,-15.277199745178223 C-10.36614990234375,-15.277199745178223 -10.36614990234375,45.831600189208984 -10.36614990234375,45.831600189208984 C-10.36614990234375,45.831600189208984 31.09844970703125,45.831600189208984 31.09844970703125,45.831600189208984 C31.09844970703125,45.831600189208984 31.09844970703125,-15.277199745178223 31.09844970703125,-15.277199745178223z"></path></g><g opacity="1" transform="matrix(1,0,0,1,0,0)"><path stroke-linecap="butt" stroke-linejoin="miter" fill-opacity="0" stroke-miterlimit="4" stroke="#fff" stroke-opacity="1" stroke-width="3" d=" M4.462699890136719,0 C4.462699890136719,0 14.769599914550781,0 14.769599914550781,0 C14.769599914550781,0 19.2322998046875,29.054500579833984 19.2322998046875,29.054500579833984 C19.2322998046875,29.054500579833984 0,29.054500579833984 0,29.054500579833984 C0,29.054500579833984 4.462699890136719,0 4.462699890136719,0 C4.462699890136719,0 4.462699890136719,0 4.462699890136719,0z"></path></g></g><g transform="matrix(1,0,0,1,30.843799591064453,18)" opacity="1" style="display: block;"><g opacity="1" transform="matrix(1,0,0,1,0,0)"><path fill="#fff" fill-opacity="1" d=" M0,0 C0,0 7.555500030517578,0 7.555500030517578,0 C7.555500030517578,0 7.555500030517578,2.8847999572753906 7.555500030517578,2.8847999572753906 C7.555500030517578,2.8847999572753906 0,2.8847999572753906 0,2.8847999572753906 C0,2.8847999572753906 0,0 0,0 C0,0 0,0 0,0z"></path></g></g><g transform="matrix(1,0,0,-1,28.232999801635742,52)" opacity="1" style="display: block;"><g opacity="1" transform="matrix(1,0,0,1,0,0)"><path fill="#fff" fill-opacity="1" d=" M0,0 C0,0 12.775699615478516,0 12.775699615478516,0 C12.775699615478516,0 12.775699615478516,3.8464999198913574 12.775699615478516,3.8464999198913574 C12.775699615478516,3.8464999198913574 0,3.8464999198913574 0,3.8464999198913574 C0,3.8464999198913574 0,0 0,0 C0,0 0,0 0,0z"></path></g></g></g></g></g></svg>